<?xml version="1.0" encoding="UTF-8"?> <svg xmlns="http://www.w3.org/2000/svg" width="78" height="24" viewBox="0 0 78 24" fill="none"><g clip-path="url(#clip0_13028_21677)"><path fill-rule="evenodd" clip-rule="evenodd" d="M12.1567 0.265625C5.71836 0.265625 0.496094 5.65046 0.496094 12.2893C0.496094 17.6003 3.85836 22.0999 8.43674 23.7227C9.00906 23.7965 9.2237 23.4277 9.2237 23.1326C9.2237 22.8376 9.2237 22.0999 9.2237 21.0672C6.0045 21.8049 5.28912 19.4444 5.28912 19.4444C4.78833 18.0429 4.00145 17.6741 4.00145 17.6741C2.92838 16.9364 4.07295 16.9364 4.07295 16.9364C5.21757 17.0102 5.8614 18.1904 5.8614 18.1904C6.93448 20.0345 8.57986 19.5182 9.2237 19.2231C9.29522 18.4117 9.6529 17.8954 9.93906 17.6003C7.36371 17.3052 4.64528 16.2725 4.64528 11.6254C4.64528 10.2976 5.07448 9.26488 5.8614 8.37976C5.71831 8.08472 5.36066 6.83068 6.0045 5.20785C6.0045 5.20785 7.00602 4.91279 9.2237 6.46185C10.1536 6.16679 11.1552 6.09302 12.1567 6.09302C13.1583 6.09302 14.1598 6.24057 15.0898 6.46185C17.3074 4.91279 18.3089 5.20785 18.3089 5.20785C18.9528 6.83068 18.5235 8.08472 18.452 8.37976C19.1674 9.19112 19.6681 10.2976 19.6681 11.6254C19.6681 16.2725 16.9498 17.2314 14.3743 17.5265C14.8036 17.8954 15.1612 18.633 15.1612 19.7394C15.1612 21.3622 15.1612 22.6162 15.1612 23.0589C15.1612 23.3539 15.3759 23.7227 15.9482 23.649C20.5981 22.0262 23.8889 17.5265 23.8889 12.2154C23.8173 5.65046 18.5951 0.265625 12.1567 0.265625Z" fill="#A1A1A1"></path><path d="M38.9005 11.0716H34.8945C34.7887 11.0716 34.7094 11.1512 34.7094 11.2573V13.2202C34.7094 13.3263 34.7887 13.4059 34.8945 13.4059H36.4546V15.8462C36.4546 15.8462 36.0976 15.9656 35.1324 15.9656C33.9955 15.9656 32.3957 15.5412 32.3957 12.0266C32.3957 8.49863 34.0616 8.03447 35.6216 8.03447C36.9702 8.03447 37.552 8.27319 37.9221 8.39255C38.0411 8.43231 38.1468 8.31295 38.1468 8.20687L38.5964 6.31026C38.5964 6.25722 38.5832 6.20416 38.5303 6.16438C38.3848 6.05827 37.4594 5.54102 35.1457 5.54102C32.475 5.54102 29.7383 6.68162 29.7383 12.1592C29.7383 17.6367 32.8716 18.459 35.5159 18.459C37.7106 18.459 39.0327 17.5174 39.0327 17.5174C39.0856 17.4909 39.0988 17.4113 39.0988 17.3715V11.2441C39.0856 11.1512 39.0063 11.0716 38.9005 11.0716Z" fill="#A1A1A1"></path><path d="M59.5239 6.19155C59.5239 6.08544 59.4445 6.00586 59.3388 6.00586H57.0912C56.9854 6.00586 56.9061 6.08544 56.9061 6.19155V10.5551H53.3893V6.19155C53.3893 6.08544 53.31 6.00586 53.2042 6.00586H50.9566C50.8508 6.00586 50.7715 6.08544 50.7715 6.19155V18.022C50.7715 18.1281 50.8508 18.2077 50.9566 18.2077H53.2042C53.31 18.2077 53.3893 18.1281 53.3893 18.022V12.9689H56.9061V18.022C56.9061 18.1281 56.9854 18.2077 57.0912 18.2077H59.352C59.4578 18.2077 59.5371 18.1281 59.5371 18.022V6.19155H59.5239Z" fill="#A1A1A1"></path><path d="M41.7082 9.22267C42.5114 9.22267 43.1625 8.56355 43.1625 7.7505C43.1625 6.93743 42.5114 6.27832 41.7082 6.27832C40.905 6.27832 40.2539 6.93743 40.2539 7.7505C40.2539 8.56355 40.905 9.22267 41.7082 9.22267Z" fill="#A1A1A1"></path><path d="M42.9904 15.5221C42.9904 15.217 42.9904 10.0578 42.9904 10.0578C42.9904 9.95167 42.9111 9.87207 42.8053 9.87207H40.5577C40.4519 9.87207 40.3594 9.97823 40.3594 10.0843C40.3594 10.0843 40.3594 16.6494 40.3594 17.9094C40.3594 18.1349 40.5048 18.2012 40.6899 18.2012C40.6899 18.2012 41.6551 18.2012 42.7127 18.2012C42.9375 18.2012 42.9904 18.0951 42.9904 17.8962C42.9904 17.485 42.9904 15.8404 42.9904 15.5221Z" fill="#A1A1A1"></path><path d="M68.0817 9.90332H65.8474C65.7416 9.90332 65.6623 9.98292 65.6623 10.089V15.8848C65.6623 15.8848 65.0938 16.296 64.2873 16.296C63.4808 16.296 63.2692 15.9247 63.2692 15.1421C63.2692 14.3464 63.2692 10.089 63.2692 10.089C63.2692 9.98292 63.19 9.90332 63.0842 9.90332H60.8101C60.7044 9.90332 60.625 9.98292 60.625 10.089C60.625 10.089 60.625 13.1792 60.625 15.5268C60.625 17.8743 61.934 18.4579 63.732 18.4579C65.2128 18.4579 66.3895 17.6356 66.3895 17.6356C66.3895 17.6356 66.4424 18.06 66.4688 18.113C66.4952 18.1661 66.5613 18.2192 66.6274 18.2192H68.0685C68.1743 18.2192 68.2536 18.1396 68.2536 18.0335V10.089C68.2668 9.98292 68.1875 9.90332 68.0817 9.90332Z" fill="#A1A1A1"></path><path d="M74.201 9.64225C72.9317 9.64225 72.0724 10.2126 72.0724 10.2126V6.20716C72.0724 6.10106 71.9931 6.02148 71.8873 6.02148H69.6265C69.5207 6.02148 69.4414 6.10106 69.4414 6.20716V18.0376C69.4414 18.1438 69.5207 18.2233 69.6265 18.2233H71.1998C71.2659 18.2233 71.3188 18.1835 71.3584 18.1172C71.3981 18.0509 71.451 17.5735 71.451 17.5735C71.451 17.5735 72.3764 18.4488 74.1216 18.4488C76.1709 18.4488 77.3477 17.4011 77.3477 13.7538C77.3477 10.1197 75.4702 9.64225 74.201 9.64225ZM73.3152 16.3002C72.5352 16.2737 72.0195 15.9288 72.0195 15.9288V12.1887C72.0195 12.1887 72.5352 11.8704 73.1697 11.8174C73.9762 11.7511 74.7563 11.9898 74.7563 13.9129C74.7431 15.9288 74.3993 16.34 73.3152 16.3002Z" fill="#A1A1A1"></path><path d="M49.4661 9.87993H47.7738V7.63849C47.7738 7.55892 47.7341 7.50586 47.6284 7.50586H45.3279C45.2354 7.50586 45.1957 7.54565 45.1957 7.62523V9.94625C45.1957 9.94625 44.0455 10.2247 43.9661 10.2513C43.8869 10.2778 43.834 10.3441 43.834 10.437V11.8959C43.834 12.002 43.9133 12.0815 44.019 12.0815H45.1957C45.1957 12.0815 45.1957 13.6068 45.1957 15.583C45.1957 18.1825 47.007 18.4345 48.2365 18.4345C48.7919 18.4345 49.4661 18.2488 49.5719 18.209C49.638 18.1825 49.6777 18.1162 49.6777 18.0366V16.4318C49.6777 16.3257 49.5851 16.2461 49.4925 16.2461C49.4001 16.2461 49.1356 16.2859 48.8844 16.2859C48.0515 16.2859 47.7738 15.9013 47.7738 15.3973C47.7738 14.8933 47.7738 12.0683 47.7738 12.0683H49.4661C49.5719 12.0683 49.6513 11.9887 49.6513 11.8826V10.0656C49.6513 9.97273 49.5719 9.87993 49.4661 9.87993Z" fill="#A1A1A1"></path></g><defs><clipPath id="clip0_13028_21677"><rect width="77.6" height="24" fill="white"></rect></clipPath></defs></svg> 