<?xml version="1.0" encoding="UTF-8"?> <svg xmlns="http://www.w3.org/2000/svg" width="24" height="24" viewBox="0 0 24 24" fill="none"><path d="M3.16 18.48C2.25333 18.48 1.49333 18.1067 0.879999 17.36C0.293333 16.6134 0 15.7867 0 14.88C0 13.84 0.2 12.6934 0.6 11.44C1.02667 10.16 1.54667 8.98669 2.16 7.92002C2.8 6.82669 3.41333 6.02669 4 5.52002H6.52C6.01333 6.45335 5.58667 7.56002 5.24 8.84002C4.92 10.0934 4.73333 11.3334 4.68 12.56C5.10667 12.8 5.48 13.1867 5.8 13.72C6.14667 14.2534 6.32 14.7734 6.32 15.28C6.32 16.1334 6.01333 16.88 5.4 17.52C4.81333 18.16 4.06667 18.48 3.16 18.48ZM12.32 18.48C11.4133 18.48 10.6533 18.1067 10.04 17.36C9.45333 16.6134 9.16 15.7867 9.16 14.88C9.16 13.84 9.36 12.6934 9.76 11.44C10.1867 10.16 10.7067 8.98669 11.32 7.92002C11.96 6.82669 12.5733 6.02669 13.16 5.52002H15.68C15.1733 6.45335 14.7467 7.56002 14.4 8.84002C14.08 10.0934 13.8933 11.3334 13.84 12.56C14.2667 12.8 14.64 13.1867 14.96 13.72C15.3067 14.2534 15.48 14.7734 15.48 15.28C15.48 16.1334 15.1733 16.88 14.56 17.52C13.9733 18.16 13.2267 18.48 12.32 18.48Z" fill="#111111"></path></svg> 