<?xml version="1.0" encoding="UTF-8"?> <svg xmlns="http://www.w3.org/2000/svg" width="132" height="22" viewBox="0 0 132 22" fill="none"><path id="Vector" d="M120.828 14.5828C121.109 17.1703 122.88 17.8664 124.932 17.8664C126.281 17.8664 127.434 18.0211 128.41 16.6289C128.706 16.207 129.675 15.7008 130.476 16.2C131.376 16.7625 131.306 17.7961 130.757 18.5484C129.429 20.3695 127.37 20.8336 124.932 20.8336C121.137 20.8336 117.652 18.2039 117.652 13.7813C117.652 9.33047 120.125 5.83594 125.044 5.83594C129.549 5.83594 131.959 8.85235 131.959 13.3875V13.5563C131.959 14.0203 131.643 14.5828 131.186 14.5828H120.828ZM129.015 11.932C128.565 9.64688 127.16 8.80313 125.044 8.80313C122.88 8.80313 121.278 9.675 120.828 11.932H129.015ZM112.353 16.432C112.353 17.3953 113.042 17.8383 114.11 17.8383C114.272 17.8383 114.447 17.8734 114.637 17.8383C115.312 17.7188 115.965 18.2883 116.113 18.9633C116.274 19.6453 115.874 20.3063 115.206 20.5102C114.75 20.6508 114.215 20.8406 113.534 20.8336C111.236 20.8125 109.177 19.1531 109.177 16.8539V1.59609C109.199 1.1822 109.372 0.790756 109.663 0.496393C109.955 0.20203 110.345 0.0253367 110.758 0C111.172 0.0235094 111.562 0.198475 111.855 0.49154C112.148 0.784606 112.323 1.17527 112.346 1.58906V16.432H112.353ZM99.6762 20.8336C98.7649 20.8701 97.8573 20.6963 97.0238 20.3257C96.1903 19.955 95.4533 19.3974 94.8697 18.6961V18.9492C94.8697 19.7578 94.0826 20.4117 93.2745 20.4117C92.4734 20.4117 91.6863 19.7578 91.6863 18.9492V1.59609C91.7082 1.18106 91.8823 0.788683 92.1753 0.494155C92.4684 0.199628 92.8598 0.0236697 93.2745 0C93.6904 0.0219937 94.0835 0.197213 94.378 0.491906C94.6725 0.786598 94.8477 1.17992 94.8697 1.59609V8.15625C95.4595 7.4641 96.1984 6.9147 97.0309 6.54935C97.8634 6.18401 98.7678 6.01221 99.6762 6.04688C103.33 6.04688 106.521 9.03516 106.521 13.4297C106.521 17.8453 103.337 20.8336 99.6762 20.8336ZM99.3811 9.28125C97.2448 9.28125 94.8697 10.3641 94.8697 13.5211C94.8697 16.6781 97.2448 17.7609 99.3811 17.7609C101.756 17.7609 103.611 16.1438 103.611 13.5211C103.637 12.958 103.546 12.3957 103.342 11.87C103.139 11.3443 102.829 10.8668 102.431 10.4679C102.033 10.069 101.556 9.75746 101.031 9.55314C100.506 9.34883 99.9439 9.25623 99.3811 9.28125ZM87.976 19.0828C87.9511 19.4968 87.776 19.8875 87.4836 20.1814C87.1911 20.4753 86.8015 20.6522 86.3878 20.6789C85.9742 20.6522 85.5845 20.4753 85.2921 20.1814C84.9996 19.8875 84.8245 19.4968 84.7997 19.0828V12.375C84.7997 10.3148 83.4224 9.16875 81.6234 9.16875C79.3396 9.16875 78.4401 10.6242 78.4401 13.7531V19.0828C78.4153 19.4968 78.2402 19.8875 77.9477 20.1814C77.6553 20.4753 77.2656 20.6522 76.8519 20.6789C76.4383 20.6522 76.0486 20.4753 75.7562 20.1814C75.4637 19.8875 75.2886 19.4968 75.2638 19.0828V12.375C75.2638 10.3148 74.1535 9.0211 72.3545 9.0211C70.1059 9.0211 68.9042 10.6242 68.9042 13.7531V19.0828C68.8794 19.4968 68.7043 19.8875 68.4118 20.1814C68.1194 20.4753 67.7297 20.6522 67.3161 20.6789C66.9024 20.6522 66.5127 20.4753 66.2203 20.1814C65.9278 19.8875 65.7527 19.4968 65.7279 19.0828V7.95235C65.7544 7.53959 65.9302 7.15062 66.2225 6.85816C66.5148 6.5657 66.9035 6.38978 67.3161 6.36328C67.7286 6.38978 68.1173 6.5657 68.4096 6.85816C68.7019 7.15062 68.8777 7.53959 68.9042 7.95235C69.9161 6.71485 71.1178 6.075 73.1205 6.075C75.1092 6.075 76.4725 6.91172 77.372 8.53594C78.4963 6.96797 80.1266 6.11719 82.4315 6.11719C85.3267 6.11719 87.983 8.48672 87.983 11.7773V19.0898L87.976 19.0828ZM58.8342 19.2234C57.6607 20.4469 56.9088 20.8406 54.365 20.8406C50.9919 20.8406 48.7713 18.6539 48.7713 15.1313V7.95235C48.7948 7.53856 48.9697 7.14789 49.2626 6.85482C49.5555 6.56176 49.9459 6.38679 50.3595 6.36328C50.773 6.38679 51.1635 6.56176 51.4563 6.85482C51.7492 7.14789 51.9241 7.53856 51.9476 7.95235V14.5406C51.9476 16.8258 53.0157 18.0281 55.0396 18.0281C56.7261 18.0281 58.1034 17.7469 58.8342 15.6938C58.8202 15.6938 58.8342 14.3227 58.8342 13.1625V7.94531C58.8579 7.53038 59.0338 7.13878 59.3281 6.84555C59.6225 6.55232 60.0146 6.37809 60.4294 6.35625C60.843 6.37976 61.2334 6.55473 61.5263 6.84779C61.8192 7.14086 61.9941 7.53152 62.0176 7.94531V19.2094C62.0176 20.018 61.2375 20.6719 60.4294 20.6719C59.6213 20.6719 58.8342 20.018 58.8342 19.2094V19.2234ZM39.2776 20.8406C38.3645 20.8774 37.4552 20.703 36.6204 20.3311C35.7855 19.9592 35.0476 19.3997 34.464 18.6961V18.9492C34.464 19.7578 33.684 20.4117 32.8758 20.4117C32.0677 20.4117 31.2877 19.7578 31.2877 18.9492V1.59609C31.3095 1.18106 31.4836 0.788683 31.7767 0.494155C32.0698 0.199628 32.4611 0.0236697 32.8758 0C33.2905 0.0236697 33.6819 0.199628 33.975 0.494155C34.268 0.788683 34.4422 1.18106 34.464 1.59609V8.15625C35.0545 7.46314 35.7946 6.91318 36.6284 6.54779C37.4622 6.18241 38.368 6.01113 39.2776 6.04688C42.9317 6.04688 46.1221 9.03516 46.1221 13.4297C46.1221 17.8453 42.9317 20.8336 39.2776 20.8336V20.8406ZM38.9825 9.28125C36.8392 9.28125 34.464 10.3641 34.464 13.5211C34.464 16.6781 36.8392 17.7609 38.9825 17.7609C41.3576 17.7609 43.2058 16.1438 43.2058 13.5211C43.2317 12.9586 43.1402 12.3969 42.9373 11.8718C42.7344 11.3466 42.4245 10.8694 42.0272 10.4706C41.63 10.0718 41.1541 9.76011 40.6299 9.55534C40.1057 9.35058 39.5447 9.25724 38.9825 9.28125ZM24.0146 9.82969C24.2886 10.3078 24.2886 10.8984 24.0146 11.3766L18.7793 20.4328C18.6439 20.6674 18.4493 20.8624 18.215 20.9981C17.9807 21.1338 17.7149 21.2056 17.4441 21.2063H6.97364C6.70289 21.2056 6.43706 21.1338 6.20274 20.9981C5.96843 20.8624 5.77385 20.6674 5.63847 20.4328L0.410247 11.3766C0.274559 11.1414 0.203125 10.8747 0.203125 10.6031C0.203125 10.3316 0.274559 10.0648 0.410247 9.82969L5.63847 0.773438C5.77385 0.538825 5.96843 0.343899 6.20274 0.208164C6.43706 0.07243 6.70289 0.000647655 6.97364 0H17.4441C17.9923 0 18.4982 0.295312 18.7793 0.773438L24.0146 9.82969ZM17.4933 11.932C18.2171 11.932 18.8074 11.3344 18.8074 10.6031C18.8074 9.87188 18.2171 9.28125 17.4933 9.28125H6.93147C6.58016 9.28125 6.24324 9.42089 5.99482 9.66945C5.74641 9.91801 5.60685 10.2551 5.60685 10.6066C5.60685 10.9582 5.74641 11.2953 5.99482 11.5438C6.24324 11.7924 6.58016 11.932 6.93147 11.932H17.4863H17.4933ZM13.8111 16.432C14.5279 16.432 15.1111 15.8414 15.1111 15.1102C15.1111 14.3789 14.5279 13.7813 13.8111 13.7813H10.5997C9.88289 13.7813 9.29963 14.3789 9.29963 15.1102C9.29963 15.8414 9.88289 16.432 10.5997 16.432H13.8041H13.8111ZM9.29963 4.78125C8.57583 4.78125 7.98555 5.37188 7.98555 6.10313C7.98555 6.83438 8.57583 7.43203 9.29963 7.43203H15.1181C15.8419 7.43203 16.4322 6.83438 16.4322 6.10313C16.4322 5.37188 15.8419 4.78125 15.1181 4.78125H9.29963Z" fill="#808080"></path></svg> 