<?xml version="1.0" encoding="UTF-8"?> <svg xmlns="http://www.w3.org/2000/svg" width="111" height="22" viewBox="0 0 111 22" fill="none"><g id="Frame" clip-path="url(#clip0_12719_33283)"><path id="Vector" d="M19.4273 5.03647H8.90224C7.72493 5.03647 6.84227 5.6392 6.84227 6.84338C6.84227 8.04756 7.43027 8.65029 8.90224 8.65029H18.8393V12.8107H6.84227V20.9296H0.957031V1.54779C0.957031 0.96932 1.43765 0.501953 2.02957 0.501953H19.426V5.03519L19.4273 5.03647Z" fill="#808080"></path><path id="Vector_2" d="M40.5249 5.03579H29.9999C28.8226 5.03579 27.9399 5.63852 27.9399 6.84271C27.9399 8.04689 28.5279 8.64961 29.9999 8.64961H39.9369V12.81H27.9399V16.3957H40.5249V20.9289H22.0547V0.5H40.5249V5.03324V5.03579Z" fill="#808080"></path><path id="Vector_3" d="M62.2759 5.03677H51.1223C49.9449 5.03677 49.0623 5.6395 49.0623 6.84368C49.0623 8.04786 49.6503 8.65059 51.1223 8.65059H61.6879V12.811H49.0636V16.3967H62.2772V20.9299H43.1797V0.500977H62.2772V5.03421L62.2759 5.03677Z" fill="#808080"></path><path id="Vector_4" d="M74.1623 16.4165H83.2849V20.9319H64.9219V0.50293H71.0442V12.864C71.0442 15.3145 71.4423 16.4165 74.1623 16.4165Z" fill="#808080"></path><path id="Vector_5" d="M85.7578 0.504204H99.5502C104.317 0.504204 110.958 3.80389 110.958 10.5463C110.958 17.8914 104.317 20.9319 99.5502 20.9319H85.7578V0.50293V0.504204ZM93.9963 16.3999H99.3735C101.727 16.3999 104.926 13.7604 104.926 10.5476C104.926 7.79315 102.021 5.03872 99.3735 5.03872H93.9963C92.7313 5.03872 91.643 5.61208 91.643 7.62075V13.5306C91.643 15.1089 92.1433 16.3999 93.9963 16.3999Z" fill="#808080"></path></g><defs><clipPath id="clip0_12719_33283"><rect width="110" height="21" fill="white" transform="translate(0.957031 0.5)"></rect></clipPath></defs></svg> 