<?xml version="1.0" encoding="UTF-8"?> <svg xmlns="http://www.w3.org/2000/svg" width="84" height="22" viewBox="0 0 84 22" fill="none"><g id="Group 48096080"><path id="Vector" d="M14.4172 8.0513V0H19.4167V21.0746H14.4172V12.5547H5.95698V21.0746H0.958984V0H5.95698V8.0513H14.4172Z" fill="#808080"></path><path id="Vector_2" d="M31.4642 21.5477C28.7272 21.5477 26.5184 20.8079 24.8377 19.328C23.1621 17.8877 22.3242 15.7958 22.3242 13.0521V0H27.3223V13.1115C27.3223 14.4534 27.6822 15.4748 28.4019 16.1757C29.1216 16.8765 30.1423 17.2264 31.4642 17.2254C32.782 17.2254 33.8073 16.8755 34.5402 16.1757C35.2731 15.4758 35.638 14.4544 35.635 13.1115V0H40.6345V13.0521C40.6345 15.7562 39.821 17.8481 38.194 19.328C36.5671 20.8079 34.3238 21.5477 31.4642 21.5477Z" fill="#808080"></path><path id="Vector_3" d="M57.786 9.85571C58.875 10.2296 59.8174 10.9397 60.4774 11.8837C61.1144 12.7775 61.4557 13.8485 61.4535 14.9463C61.4535 16.8816 60.8078 18.3863 59.5164 19.4604C58.2249 20.5345 56.3253 21.0726 53.8174 21.0746H43.5234V0H53.5224C55.8488 0 57.6086 0.493442 58.8017 1.48033C59.9949 2.46721 60.5913 3.76955 60.5913 5.38732C60.5944 7.47977 59.6593 8.96923 57.786 9.85571ZM53.2092 3.99522H48.5351V8.49404H53.2092C53.9775 8.49404 54.5741 8.28713 54.9989 7.8733C55.4236 7.45948 55.6354 6.89706 55.6344 6.18606C55.6344 5.51562 55.4226 4.98262 54.9989 4.58705C54.5751 4.19149 53.9785 3.99421 53.2092 3.99522ZM48.5351 17.0794H53.5345C54.4205 17.0794 55.1057 16.8724 55.5903 16.4586C56.0749 16.0448 56.3161 15.4525 56.3141 14.6816C56.3141 13.0842 55.3875 12.2854 53.5345 12.2854H48.5351V17.0794Z" fill="#808080"></path><path id="Vector_4" d="M83.4723 21.0731H77.5575L72.2721 14.3165L66.9851 21.0731H61.0703L69.3146 10.5388L61.0703 0H66.9821L72.2721 6.75811L75.2279 10.5388L77.8737 13.9209L83.4723 21.0731Z" fill="#808080"></path><path id="Vector_5" d="M78.1829 6.75811H72.2695L77.558 0H83.4697L78.1829 6.75811Z" fill="#808080"></path></g></svg> 