<?xml version="1.0" encoding="UTF-8"?> <svg xmlns="http://www.w3.org/2000/svg" width="178" height="28" viewBox="0 0 178 28" fill="none"><path d="M1.27319 6.37389H4.30668V21.8347H1.27319V6.37389ZM7.60895 6.37389H10.6141V8.87724H10.7632C11.1253 7.76335 12.1602 6.13997 15.0576 6.13997C17.4611 6.13997 18.9471 7.38269 19.4409 9.03803H19.5775C20.1935 7.5614 21.7083 6.13997 24.3965 6.13997C27.6258 6.13997 29.5797 7.9285 29.5797 11.0004V21.8347H26.5482V11.922C26.5482 9.95965 25.4239 8.80411 23.4109 8.80411C21.5339 8.80411 20.0902 10.1519 20.0902 12.2155V21.8347H17.1193V12.0087C17.1193 10.0047 15.8584 8.80363 13.9209 8.80363C12.03 8.80363 10.6469 10.1059 10.6469 12.1874V21.8347H7.61342V6.37389H7.60895ZM36.1961 19.5057H36.0471V27.1029H33.0121V6.36033H35.9562V8.81767H36.1052C36.6607 7.38269 38.236 6.15402 40.8249 6.15402C44.4466 6.15402 46.8313 8.62976 46.8313 12.8892V15.3058C46.8313 19.5972 44.4138 22.055 40.7355 22.055C38.1625 22.055 36.7983 20.8675 36.1961 19.5057ZM43.764 14.8661V13.357C43.764 10.3403 42.2919 8.77651 39.9212 8.77651C37.5037 8.77651 36.0461 10.3858 36.0461 13.0383V15.4226C36.0461 17.8116 37.622 19.4345 39.9833 19.4345C42.2025 19.4321 43.764 17.9835 43.764 14.8661ZM48.8205 17.3418C48.8205 14.6186 50.758 12.7754 54.408 12.7754H58.4764V11.3128C58.4764 9.5107 57.2582 8.67626 55.3396 8.67626C53.4298 8.67626 52.6071 9.40997 52.32 10.4323H49.4226C49.6342 7.85537 51.6895 6.14046 55.4285 6.14046C58.7635 6.14046 61.5104 7.50231 61.5104 11.354V21.8347H58.613V19.8311H58.4764C57.7426 21.0187 56.3461 22.087 53.9987 22.087C50.9369 22.0822 48.8205 20.2258 48.8205 17.3418ZM58.4764 16.5946V14.9252H54.7797C52.7527 14.9252 51.8823 15.8938 51.8823 17.1811C51.8823 18.8223 53.3265 19.5972 54.9019 19.5972C56.9149 19.5929 58.4764 18.323 58.4764 16.5946ZM65.0009 0.358398H68.0344V21.8347H65.0009V0.358398ZM70.7435 17.3414C70.7435 14.6181 72.6811 12.7749 76.3316 12.7749H80.4019V11.3123C80.4019 9.51022 79.1837 8.67577 77.2646 8.67577C75.3549 8.67577 74.5322 9.40949 74.245 10.4318H71.3451C71.5568 7.85488 73.6121 6.13997 77.3515 6.13997C80.6861 6.13997 83.4329 7.50183 83.4329 11.3535V21.8347H80.5356V19.8311H80.4019C79.6681 21.0187 78.2711 22.087 75.9242 22.087C72.8599 22.0822 70.7435 20.2254 70.7435 17.3414ZM80.4019 16.5941V14.9252H76.7047C74.6777 14.9252 73.8073 15.8938 73.8073 17.1811C73.8073 18.8223 75.2515 19.5972 76.8274 19.5972C78.838 19.5929 80.4019 18.3225 80.4019 16.5941ZM97.1413 6.31432C100.688 6.31432 102.564 8.26315 102.564 10.441H100.763C100.702 9.32716 99.6531 7.86408 97.0866 7.86408C95.0592 7.86408 93.4977 8.78425 93.4977 10.5277C93.4977 12.4165 95.3602 12.8432 97.4766 13.2786C100.408 13.8655 102.928 14.5668 102.928 17.5109C102.928 20.5135 100.36 22.0773 96.9664 22.0773C93.3169 22.0773 91.2427 20.3077 91.2427 17.9051H93.1052C93.2543 19.2669 94.2762 20.5276 97.023 20.5276C99.591 20.5276 101.047 19.4137 101.047 17.7186C101.047 15.8018 99.1096 15.3756 96.8566 14.9097C93.8698 14.2631 91.6168 13.5478 91.6168 10.7098C91.6123 7.72218 94.1664 6.31432 97.1388 6.31432H97.1413ZM106.426 2.77021H108.317V6.5618H112.178V8.11156H108.321V17.9787C108.321 19.8539 109.041 20.3518 111.04 20.3518C111.459 20.3518 112.164 20.3058 112.423 20.2782V21.8144C111.835 21.8875 111.243 21.9273 110.65 21.9335C107.225 21.9335 106.431 20.7048 106.431 17.8344V8.11156H103.788V6.5618H106.431V2.77021H106.426ZM126.809 21.8347H124.916V19.125H124.816C124.351 20.4409 122.818 22.0827 119.948 22.0827C116.867 22.0827 114.586 20.6612 114.586 17.135V6.5618H116.476V16.6813C116.476 19.2853 118.099 20.4457 120.338 20.4457C120.933 20.4604 121.526 20.359 122.08 20.1472C122.635 19.9355 123.14 19.6178 123.567 19.2129C123.994 18.8079 124.334 18.3238 124.566 17.7891C124.798 17.2544 124.918 16.6798 124.919 16.0991V6.5618H126.81L126.809 21.8347ZM140.584 9.06999H140.674V0.404408H142.565V21.84H140.764V19.1764H140.66C140.345 20.3043 138.798 22.088 135.75 22.088C132.189 22.088 129.73 19.6442 129.73 15.765V12.6465C129.73 8.70773 132.284 6.30512 135.811 6.30512C138.661 6.30076 140.105 7.83648 140.584 9.06999ZM131.623 13.0955V15.2918C131.623 18.585 133.438 20.4317 136.1 20.4317C138.955 20.4317 140.681 18.3225 140.681 15.4845V12.6867C140.681 9.99065 138.79 7.9406 136.025 7.9406C133.483 7.9406 131.623 9.72573 131.623 13.0955ZM145.945 6.5618H147.818V21.8347H145.942L145.945 6.5618ZM163.804 12.9904V15.4066C163.804 19.712 160.949 22.0827 157.256 22.0827C153.517 22.0827 150.709 19.7396 150.709 15.4066V12.9904C150.709 8.79055 153.55 6.31432 157.256 6.31432C160.934 6.31432 163.801 8.70338 163.801 12.9904H163.804ZM152.6 13.2243V15.2138C152.6 18.5071 154.434 20.4409 157.27 20.4409C160.078 20.4409 161.912 18.5245 161.912 15.2138V13.2243C161.912 9.95965 160.021 7.95126 157.27 7.95126C154.518 7.95126 152.597 9.94561 152.597 13.2243H152.6ZM171.513 6.31432C175.059 6.31432 176.935 8.26315 176.935 10.441H175.134C175.073 9.32716 174.024 7.86408 171.457 7.86408C169.43 7.86408 167.869 8.78425 167.869 10.5277C167.869 12.4165 169.731 12.8432 171.848 13.2786C174.779 13.8655 177.299 14.5668 177.299 17.5109C177.299 20.5135 174.731 22.0773 171.337 22.0773C167.687 22.0773 165.613 20.3077 165.613 17.9051H167.476C167.625 19.2669 168.647 20.5276 171.393 20.5276C173.962 20.5276 175.42 19.4137 175.42 17.7186C175.42 15.8018 173.482 15.3756 171.229 14.9097C168.242 14.2631 165.989 13.5478 165.989 10.7098C165.983 7.72218 168.535 6.31432 171.51 6.31432H171.513ZM146.824 2.23845C147.088 2.23913 147.347 2.31608 147.567 2.45962C147.787 2.60316 147.958 2.80688 148.059 3.04514C148.161 3.2834 148.188 3.54556 148.136 3.79864C148.085 4.05172 147.959 4.28441 147.772 4.46744C147.586 4.65047 147.348 4.77565 147.089 4.82724C146.829 4.87884 146.56 4.85453 146.315 4.75739C146.07 4.66025 145.86 4.49461 145.711 4.28131C145.562 4.06801 145.482 3.81658 145.479 3.55866C145.473 3.38465 145.503 3.21126 145.568 3.04914C145.634 2.88702 145.732 2.7396 145.858 2.61595C145.983 2.49229 146.134 2.39501 146.299 2.33009C146.465 2.26518 146.643 2.23399 146.821 2.23845H146.824ZM2.78298 1.34443C3.10761 1.34359 3.42522 1.43646 3.69579 1.61132C3.96635 1.78619 4.17774 2.03524 4.30332 2.32706C4.4289 2.61888 4.46303 2.94041 4.40142 3.25111C4.33982 3.56182 4.18522 3.84779 3.95713 4.07296C3.72904 4.29814 3.43767 4.45245 3.11974 4.51643C2.80182 4.58041 2.47158 4.5512 2.17066 4.43249C1.86974 4.31377 1.61162 4.11086 1.42883 3.84935C1.24603 3.58783 1.14676 3.27941 1.14352 2.96297C1.13604 2.75017 1.17317 2.53813 1.25264 2.3398C1.33211 2.14148 1.45225 1.96105 1.60571 1.80954C1.75918 1.65804 1.94273 1.53865 2.14516 1.45867C2.34758 1.3787 2.56461 1.33983 2.78298 1.34443Z" fill="#808080"></path></svg> 