<?xml version="1.0" encoding="UTF-8"?> <svg xmlns="http://www.w3.org/2000/svg" width="83" height="40" viewBox="0 0 83 40" fill="none"><g clip-path="url(#clip0_11659_10609)"><path d="M13.4582 17.0513V9H18.4577V30.0746H13.4582V21.5547H4.998V30.0746H0V9H4.998V17.0513H13.4582Z" fill="white"></path><path d="M30.5062 30.5477C27.7692 30.5477 25.5604 29.8079 23.8797 28.328C22.204 26.8877 21.3662 24.7958 21.3662 22.0521V9H26.3643V22.1115C26.3643 23.4534 26.7241 24.4748 27.4439 25.1757C28.1636 25.8765 29.1843 26.2264 30.5062 26.2254C31.824 26.2254 32.8493 25.8755 33.5822 25.1757C34.3151 24.4758 34.68 23.4544 34.677 22.1115V9H39.6765V22.0521C39.6765 24.7562 38.863 26.8481 37.236 28.328C35.6091 29.8079 33.3658 30.5477 30.5062 30.5477Z" fill="white"></path><path d="M56.826 18.8557C57.915 19.2296 58.8574 19.9397 59.5174 20.8837C60.1544 21.7775 60.4957 22.8485 60.4935 23.9463C60.4935 25.8816 59.8478 27.3863 58.5564 28.4604C57.2649 29.5345 55.3653 30.0726 52.8574 30.0746H42.5635V9H52.5624C54.8888 9 56.6487 9.49344 57.8417 10.4803C59.0349 11.4672 59.6314 12.7696 59.6314 14.3873C59.6344 16.4798 58.6993 17.9692 56.826 18.8557ZM52.2492 12.9952H47.5751V17.494H52.2492C53.0176 17.494 53.6142 17.2871 54.0389 16.8733C54.4636 16.4595 54.6754 15.8971 54.6744 15.1861C54.6744 14.5156 54.4626 13.9826 54.0389 13.587C53.6151 13.1915 53.0186 12.9942 52.2492 12.9952ZM47.5751 26.0794H52.5745C53.4605 26.0794 54.1458 25.8724 54.6304 25.4586C55.1149 25.0448 55.3562 24.4525 55.3541 23.6816C55.3541 22.0842 54.4276 21.2854 52.5745 21.2854H47.5751V26.0794Z" fill="white"></path><path d="M82.5124 30.0731H76.5975L71.3121 23.3165L66.0252 30.0731H60.1104L68.3546 19.5388L60.1104 9H66.0221L71.3121 15.7581L74.268 19.5388L76.9138 22.9209L82.5124 30.0731Z" fill="white"></path><path d="M77.2249 15.7581H71.3115L76.6 9H82.5117L77.2249 15.7581Z" fill="white"></path></g><defs><clipPath id="clip0_11659_10609"><rect width="82.5124" height="39.5477" fill="white"></rect></clipPath></defs></svg> 