<?xml version="1.0" encoding="UTF-8"?> <svg xmlns="http://www.w3.org/2000/svg" width="65" height="65" viewBox="0 0 65 65" fill="none"><path fill-rule="evenodd" clip-rule="evenodd" d="M42.3254 15.9862C42.9508 16.3462 43.4486 17.07 43.7073 18.2759C43.966 19.4818 43.959 21.0671 43.6567 22.948C43.5405 23.6707 43.382 24.4296 43.1819 25.2183C41.4262 24.8222 39.5125 24.5225 37.4894 24.3361C36.3159 22.6828 35.0988 21.1805 33.8767 19.8628C34.4618 19.2958 35.0419 18.7794 35.6117 18.3178C37.0946 17.1164 38.4682 16.3175 39.6452 15.938C40.8223 15.5584 41.6999 15.6263 42.3254 15.9862ZM31.2872 19.8628C30.702 19.2958 30.122 18.7794 29.5523 18.3178C28.0693 17.1164 26.6956 16.3176 25.5187 15.938C24.3416 15.5584 23.464 15.6263 22.8386 15.9862C22.2131 16.3462 21.7154 17.07 21.4566 18.2759C21.1978 19.4818 21.205 21.0671 21.5073 22.948C21.6233 23.6707 21.782 24.4296 21.982 25.2183C23.7378 24.8222 25.6515 24.5225 27.6744 24.3361C28.848 22.6828 30.0651 21.1805 31.2872 19.8628ZM32.5819 18.5374C31.9582 17.9329 31.3368 17.3796 30.7227 16.8821C29.1369 15.5973 27.5612 14.6522 26.0899 14.1778C24.6187 13.7033 23.1493 13.6711 21.9106 14.3841C20.672 15.0969 19.9652 16.3816 19.6418 17.8889C19.3183 19.3964 19.3515 21.2292 19.6748 23.2407C19.7999 24.0196 19.9698 24.8326 20.1831 25.6734C19.3461 25.9096 18.5548 26.1695 17.8156 26.4509C15.9064 27.1775 14.2976 28.0653 13.1498 29.0982C12.0019 30.1311 11.2393 31.3837 11.2393 32.8094C11.2393 34.2352 12.0019 35.4878 13.1498 36.5206C14.2976 37.5536 15.9064 38.4414 17.8156 39.168C18.5548 39.4494 19.3461 39.7092 20.1831 39.9455C19.9698 40.7861 19.7999 41.5992 19.6748 42.3781C19.3515 44.3895 19.3183 46.2225 19.6418 47.7299C19.9652 49.2372 20.672 50.5219 21.9106 51.2348C23.1493 51.9477 24.6187 51.9155 26.0899 51.441C27.5612 50.9666 29.1369 50.0215 30.7227 48.7367C31.3368 48.2392 31.9582 47.686 32.5819 47.0815C33.2056 47.686 33.8272 48.2392 34.4411 48.7367C36.0269 50.0215 37.6027 50.9666 39.074 51.441C40.5451 51.9155 42.0146 51.9477 43.2533 51.2348C44.4919 50.5219 45.1987 49.2372 45.5222 47.7299C45.8456 46.2225 45.8124 44.3895 45.4892 42.3781C45.364 41.5992 45.1941 40.7861 44.9807 39.9455C45.8178 39.7092 46.6091 39.4494 47.3483 39.168C49.2574 38.4414 50.8663 37.5536 52.0142 36.5206C53.1619 35.4878 53.9246 34.2352 53.9246 32.8094C53.9246 31.3837 53.1619 30.1311 52.0142 29.0982C50.8663 28.0653 49.2574 27.1775 47.3483 26.4509C46.6091 26.1695 45.8178 25.9096 44.9807 25.6734C45.1941 24.8326 45.364 24.0196 45.4892 23.2407C45.8124 21.2292 45.8456 19.3964 45.5222 17.8889C45.1987 16.3816 44.4919 15.0969 43.2533 14.3841C42.0146 13.6711 40.5451 13.7033 39.074 14.1778C37.6027 14.6522 36.0269 15.5973 34.4411 16.8821C33.8272 17.3796 33.2056 17.9329 32.5819 18.5374ZM42.6744 27.0008C41.4757 26.7338 40.1933 26.5124 38.8443 26.3437C39.2845 27.0296 39.7158 27.7363 40.1359 28.4617C40.5562 29.1873 40.9544 29.9129 41.3302 30.6359C41.8582 29.387 42.3069 28.1692 42.6744 27.0008ZM42.3968 32.8094C43.2464 30.9697 43.943 29.1678 44.4767 27.4538C45.2619 27.6755 46.0005 27.9182 46.6863 28.1792C48.4716 28.8586 49.8524 29.6452 50.7706 30.4716C51.6889 31.2979 52.0687 32.0895 52.0687 32.8094C52.0687 33.5294 51.6889 34.3209 50.7706 35.1473C49.8524 35.9736 48.4716 36.7602 46.6863 37.4397C46.0005 37.7007 45.2619 37.9433 44.4767 38.1649C43.943 36.4511 43.2464 34.6492 42.3968 32.8094ZM40.3455 32.8094C39.8 31.6804 39.194 30.5353 38.5287 29.3868C37.8635 28.2383 37.1718 27.1424 36.4637 26.107C35.2102 26.0134 33.9124 25.9641 32.5819 25.9641C31.2515 25.9641 29.9537 26.0134 28.7001 26.107C27.9921 27.1424 27.3003 28.2383 26.6352 29.3868C25.9699 30.5353 25.3638 31.6804 24.8183 32.8094C25.3638 33.9384 25.9699 35.0835 26.6352 36.2321C27.3003 37.3806 27.9921 38.4765 28.7001 39.5119C29.9537 39.6054 31.2515 39.6547 32.5819 39.6547C33.9124 39.6547 35.2102 39.6054 36.4637 39.5119C37.1718 38.4765 37.8635 37.3806 38.5287 36.2321C39.194 35.0835 39.8 33.9384 40.3455 32.8094ZM38.8443 39.2752C39.2845 38.5892 39.7158 37.8825 40.1359 37.1571C40.5562 36.4316 40.9544 35.7059 41.3302 34.9829C41.8582 36.2319 42.3069 37.4497 42.6744 38.618C41.4757 38.885 40.1933 39.1064 38.8443 39.2752ZM35.0678 41.4486C34.2519 41.4857 33.4224 41.5047 32.5819 41.5047C31.7416 41.5047 30.912 41.4857 30.0961 41.4486C30.9171 42.5289 31.7507 43.5253 32.5819 44.4266C33.4132 43.5253 34.2468 42.5289 35.0678 41.4486ZM33.8767 45.756C35.0988 44.4384 36.3159 42.936 37.4894 41.2828C39.5125 41.0963 41.4262 40.7967 43.1819 40.4005C43.382 41.1892 43.5405 41.9481 43.6567 42.6708C43.959 44.5518 43.966 46.137 43.7073 47.3429C43.4486 48.5489 42.9508 49.2726 42.3254 49.6325C41.6999 49.9925 40.8223 50.0605 39.6452 49.6808C38.4682 49.3012 37.0946 48.5025 35.6116 47.301C35.0419 46.8394 34.4618 46.3231 33.8767 45.756ZM31.2872 45.756C30.0651 44.4384 28.848 42.9361 27.6744 41.2828C25.6515 41.0963 23.7378 40.7967 21.982 40.4005C21.782 41.1892 21.6233 41.9481 21.5073 42.6708C21.205 44.5518 21.1978 46.137 21.4566 47.3429C21.7154 48.5489 22.2131 49.2726 22.8386 49.6325C23.464 49.9925 24.3416 50.0605 25.5187 49.6808C26.6956 49.3012 28.0693 48.5025 29.5523 47.301C30.122 46.8394 30.702 46.3231 31.2872 45.756ZM22.4895 38.618C23.6882 38.885 24.9705 39.1064 26.3195 39.2752C25.8794 38.5892 25.4481 37.8825 25.0279 37.1571C24.6078 36.4316 24.2095 35.7059 23.8337 34.9829C23.3058 36.2319 22.8569 37.4497 22.4895 38.618ZM23.8337 30.6359C24.2095 29.9129 24.6078 29.1873 25.0279 28.4617C25.4481 27.7363 25.8794 27.0296 26.3195 26.3437C24.9705 26.5124 23.6882 26.7338 22.4895 27.0008C22.8569 28.1692 23.3058 29.3869 23.8337 30.6359ZM22.767 32.8094C21.9175 34.6492 21.2209 36.4511 20.6872 38.1649C19.9021 37.9433 19.1635 37.7007 18.4775 37.4397C16.6924 36.7602 15.3116 35.9736 14.3933 35.1473C13.475 34.3209 13.0951 33.5294 13.0951 32.8094C13.0951 32.0895 13.475 31.2979 14.3933 30.4716C15.3116 29.6452 16.6924 28.8586 18.4775 28.1792C19.1635 27.9182 19.9021 27.6755 20.6872 27.4538C21.2209 29.1678 21.9175 30.9697 22.767 32.8094ZM30.0961 24.1701C30.912 24.1331 31.7416 24.1141 32.5819 24.1141C33.4224 24.1141 34.2519 24.1331 35.0678 24.1701C34.2468 23.0899 33.4132 22.0935 32.5819 21.1922C31.7507 22.0935 30.9171 23.0899 30.0961 24.1701ZM36.385 32.8093C36.385 34.9039 34.6817 36.6019 32.5805 36.6019C30.4793 36.6019 28.776 34.9039 28.776 32.8093C28.776 30.7146 30.4793 29.0166 32.5805 29.0166C34.6817 29.0166 36.385 30.7146 36.385 32.8093Z" fill="#61DAFB"></path></svg> 