<?xml version="1.0" encoding="UTF-8"?> <svg xmlns="http://www.w3.org/2000/svg" width="65" height="64" viewBox="0 0 65 64" fill="none"><path fill-rule="evenodd" clip-rule="evenodd" d="M29.782 24.3536C29.782 22.7619 31.0881 22.1496 33.2512 22.1496C36.3531 22.1496 40.2713 23.0884 43.3732 24.7617V15.1704C39.9856 13.8236 36.6388 13.293 33.2512 13.293C24.966 13.293 19.4561 17.6193 19.4561 24.8434C19.4561 36.1081 34.9654 34.3123 34.9654 39.1691C34.9654 41.0466 33.3329 41.6588 31.0473 41.6588C27.6597 41.6588 23.3334 40.2711 19.905 38.3937V48.1074C23.7007 49.74 27.5373 50.4339 31.0473 50.4339C39.5366 50.4339 45.373 46.23 45.373 38.9243C45.3322 26.7616 29.782 28.9248 29.782 24.3536Z" fill="#635BFF"></path></svg> 