<?xml version="1.0" encoding="UTF-8"?> <svg xmlns="http://www.w3.org/2000/svg" width="65" height="64" viewBox="0 0 65 64" fill="none"><path d="M53.4944 41.099C53.5675 40.8499 53.643 40.602 53.7074 40.3466C56.456 29.395 49.7473 16.4472 38.3948 9.62988C43.3702 16.3742 45.5694 24.5427 43.6149 31.6866C43.4407 32.3235 43.2309 32.9355 42.9993 33.5299C42.7476 33.3651 42.431 33.1771 42.0058 32.9429C42.0058 32.9429 30.7126 25.9701 18.4729 13.6374C18.1519 13.3133 24.9999 23.425 32.7713 31.6354C29.1104 29.5799 18.9068 22.1556 12.4466 16.2437C13.2403 17.5674 14.1844 18.8418 15.2215 20.0688C20.6165 26.9099 27.6511 35.3513 36.0795 41.8327C30.1575 45.4568 21.7897 45.7384 13.4588 41.8365C11.3982 40.8705 9.46067 39.7053 7.66797 38.3816C11.1947 44.0225 16.6265 48.8892 23.2371 51.7309C31.1204 55.119 38.9599 54.8892 44.7988 51.7865L44.7945 51.7933C44.8144 51.7808 44.8363 51.7677 44.8569 51.7552C45.1192 51.6147 45.3789 51.4699 45.6324 51.3182C48.4529 49.8701 53.9565 48.4415 56.9137 54.1961C57.6418 55.6122 59.1897 48.1068 53.4994 41.1053C53.4976 41.1021 53.4963 41.1009 53.4944 41.099Z" fill="#F05138"></path></svg> 