<?xml version="1.0" encoding="UTF-8"?> <svg xmlns="http://www.w3.org/2000/svg" width="64" height="65" viewBox="0 0 64 65" fill="none"><path d="M33.5917 19.5381L40.0769 23.2809C40.31 23.4123 40.3185 23.7767 40.0769 23.9081L32.3709 28.3589C32.1378 28.4945 31.8622 28.486 31.646 28.3589L23.94 23.9081C23.7027 23.781 23.6985 23.408 23.94 23.2809L30.421 19.5381V12.2092L13.873 21.7634V40.8716V40.7826V40.8716L20.2184 37.2094V29.7238C20.2142 29.4567 20.5278 29.2659 20.761 29.4101L28.467 33.8607C28.7001 33.9963 28.8315 34.238 28.8315 34.4881V43.3852C28.8357 43.6522 28.5221 43.843 28.289 43.6989L21.8037 39.9561L15.4583 43.6183L32.0064 53.1724L48.5543 43.6183L42.209 39.9561L35.7237 43.6989C35.4948 43.8388 35.1726 43.6565 35.1811 43.3852V34.4881C35.1811 34.221 35.3295 33.9836 35.5457 33.8607L43.2517 29.4101C43.4806 29.2702 43.8027 29.4482 43.7942 29.7238V37.2094L50.1396 40.8716V21.7634L33.5917 12.2092V19.5381Z" fill="#111111"></path></svg> 